<svg width="170" height="170" viewBox="0 0 170 170" fill="none" xmlns="http://www.w3.org/2000/svg">
<path d="M151.406 31.875H54.4531C53.7227 31.875 53.125 32.4727 53.125 33.2031V42.5C53.125 43.2305 53.7227 43.8281 54.4531 43.8281H151.406C152.137 43.8281 152.734 43.2305 152.734 42.5V33.2031C152.734 32.4727 152.137 31.875 151.406 31.875ZM151.406 79.0234H54.4531C53.7227 79.0234 53.125 79.6211 53.125 80.3516V89.6484C53.125 90.3789 53.7227 90.9766 54.4531 90.9766H151.406C152.137 90.9766 152.734 90.3789 152.734 89.6484V80.3516C152.734 79.6211 152.137 79.0234 151.406 79.0234ZM151.406 126.172H54.4531C53.7227 126.172 53.125 126.77 53.125 127.5V136.797C53.125 137.527 53.7227 138.125 54.4531 138.125H151.406C152.137 138.125 152.734 137.527 152.734 136.797V127.5C152.734 126.77 152.137 126.172 151.406 126.172ZM17.2656 37.8516C17.2656 39.0724 17.5061 40.2814 17.9733 41.4093C18.4405 42.5373 19.1253 43.5622 19.9886 44.4254C20.8519 45.2887 21.8768 45.9735 23.0047 46.4408C24.1327 46.908 25.3416 47.1484 26.5625 47.1484C27.7834 47.1484 28.9923 46.908 30.1203 46.4408C31.2482 45.9735 32.2731 45.2887 33.1364 44.4254C33.9997 43.5622 34.6845 42.5373 35.1517 41.4093C35.6189 40.2814 35.8594 39.0724 35.8594 37.8516C35.8594 36.6307 35.6189 35.4218 35.1517 34.2938C34.6845 33.1659 33.9997 32.141 33.1364 31.2777C32.2731 30.4144 31.2482 29.7296 30.1203 29.2624C28.9923 28.7952 27.7834 28.5547 26.5625 28.5547C25.3416 28.5547 24.1327 28.7952 23.0047 29.2624C21.8768 29.7296 20.8519 30.4144 19.9886 31.2777C19.1253 32.141 18.4405 33.1659 17.9733 34.2938C17.5061 35.4218 17.2656 36.6307 17.2656 37.8516ZM17.2656 85C17.2656 86.2209 17.5061 87.4298 17.9733 88.5578C18.4405 89.6857 19.1253 90.7106 19.9886 91.5739C20.8519 92.4372 21.8768 93.122 23.0047 93.5892C24.1327 94.0564 25.3416 94.2969 26.5625 94.2969C27.7834 94.2969 28.9923 94.0564 30.1203 93.5892C31.2482 93.122 32.2731 92.4372 33.1364 91.5739C33.9997 90.7106 34.6845 89.6857 35.1517 88.5578C35.6189 87.4298 35.8594 86.2209 35.8594 85C35.8594 83.7791 35.6189 82.5702 35.1517 81.4422C34.6845 80.3143 33.9997 79.2894 33.1364 78.4261C32.2731 77.5628 31.2482 76.878 30.1203 76.4108C28.9923 75.9436 27.7834 75.7031 26.5625 75.7031C25.3416 75.7031 24.1327 75.9436 23.0047 76.4108C21.8768 76.878 20.8519 77.5628 19.9886 78.4261C19.1253 79.2894 18.4405 80.3143 17.9733 81.4422C17.5061 82.5702 17.2656 83.7791 17.2656 85ZM17.2656 132.148C17.2656 133.369 17.5061 134.578 17.9733 135.706C18.4405 136.834 19.1253 137.859 19.9886 138.722C20.8519 139.586 21.8768 140.27 23.0047 140.738C24.1327 141.205 25.3416 141.445 26.5625 141.445C27.7834 141.445 28.9923 141.205 30.1203 140.738C31.2482 140.27 32.2731 139.586 33.1364 138.722C33.9997 137.859 34.6845 136.834 35.1517 135.706C35.6189 134.578 35.8594 133.369 35.8594 132.148C35.8594 130.928 35.6189 129.719 35.1517 128.591C34.6845 127.463 33.9997 126.438 33.1364 125.575C32.2731 124.711 31.2482 124.026 30.1203 123.559C28.9923 123.092 27.7834 122.852 26.5625 122.852C25.3416 122.852 24.1327 123.092 23.0047 123.559C21.8768 124.026 20.8519 124.711 19.9886 125.575C19.1253 126.438 18.4405 127.463 17.9733 128.591C17.5061 129.719 17.2656 130.928 17.2656 132.148Z" fill="#0A7DC1"/>
</svg>
