<svg width="170" height="170" viewBox="0 0 170 170" fill="none" xmlns="http://www.w3.org/2000/svg">
<path d="M56.3522 84.9992C56.3522 100.834 69.1633 113.645 84.9983 113.645C100.833 113.645 113.644 100.834 113.644 84.9992C113.644 69.1644 100.833 56.3536 84.9983 56.3536C69.1633 56.3536 56.3522 69.144 56.3522 84.9992ZM164.275 54.4329L116.403 56.9052C129.398 72.0862 129.602 93.9893 118.671 110.784L80.258 169.874C96.1952 170.732 112.623 167.238 127.497 158.595C164.275 137.346 179.191 92.7838 164.275 54.4329V54.4329ZM45.8296 101.324L13.8531 38.4347C4.79639 52.2746 -0.0186272 68.4594 5.41542e-05 84.9992C5.41542e-05 127.498 31.1184 162.702 71.799 168.934L93.6411 126.149C73.9036 129.868 54.8402 119.039 45.8296 101.324V101.324ZM90.4741 42.991L160.843 46.6892C153.651 32.4277 142.331 20.0254 127.457 11.3827C113.992 3.59809 99.1987 -0.100101 84.6918 0.00205899C59.6623 0.104219 35.2048 11.2805 18.8795 31.5695L45.0736 71.8002C51.612 53.0231 70.5731 41.8264 90.4741 42.991Z" fill="#0A7DC1"/>
</svg>
