<svg width="170" height="170" viewBox="0 0 170 170" fill="none" xmlns="http://www.w3.org/2000/svg">
<g clip-path="url(#clip0)">
<path d="M86.3703 120.425V184.158H60.8976V120.425H86.3619H86.3703ZM143.826 107.675H114.061C112.371 107.675 110.749 108.347 109.554 109.542C108.359 110.738 107.687 112.359 107.687 114.05V143.817C107.687 147.336 110.543 150.192 114.061 150.192H143.826C145.517 150.192 147.139 149.521 148.334 148.325C149.529 147.129 150.201 145.508 150.201 143.817V114.05C150.201 112.359 149.529 110.738 148.334 109.542C147.139 108.347 145.517 107.675 143.826 107.675ZM137.443 120.425V137.442H120.436V120.425H137.435H137.443ZM66.5752 56.6837H26.9169V66.5862C26.9169 76.6162 34.3794 84.9207 44.0517 86.2297L45.3861 86.3657L46.746 86.4081C57.2343 86.4081 65.8272 78.2567 66.5242 67.9377L66.5667 66.5777V56.6922L66.5752 56.6837ZM118.974 56.6837H79.3243V66.5862C79.3243 76.6162 86.7868 84.9207 96.4592 86.2297L97.7936 86.3657L99.1535 86.4081C109.642 86.4081 118.235 78.2567 118.932 67.9377L118.974 66.5777V56.6922V56.6837ZM171.39 56.6837H131.74V66.5862C131.74 76.6162 139.203 84.9207 148.884 86.2297L150.21 86.3657L151.569 86.4081C162.066 86.4081 170.651 78.2567 171.348 67.9377L171.399 66.5777L171.39 56.6837ZM74.1737 26.9167H50.9362L35.1528 43.9337H68.955L74.1737 26.9167ZM110.781 26.9167H87.5178L82.2821 43.9337H116.025L110.798 26.9167H110.781ZM147.371 26.9167H124.133L129.352 43.9337H163.154L147.379 26.9167H147.371ZM15.8676 45.9737L43.4907 16.2067C44.4886 15.1296 45.8276 14.4301 47.2815 14.2262L48.1654 14.1667H150.159C151.627 14.1672 153.05 14.6746 154.187 15.6032L154.833 16.1982L182.643 46.2032L182.898 46.5262C183.765 47.6822 184.156 48.9912 184.156 50.2662V66.5947C184.156 75.0437 180.935 82.7447 175.657 88.5247V177.792C175.656 179.333 175.097 180.823 174.083 181.984C173.069 183.145 171.668 183.9 170.141 184.107L169.282 184.167L99.128 184.158V114.05C99.128 112.359 98.4564 110.738 97.2609 109.542C96.0655 108.347 94.4441 107.675 92.7534 107.675H54.54C52.8494 107.675 51.228 108.347 50.0325 109.542C48.837 110.738 48.1654 112.359 48.1654 114.05V184.158L29.0417 184.167C27.5013 184.167 26.013 183.609 24.8521 182.596C23.6912 181.584 22.9361 180.185 22.7267 178.659L22.6672 177.792V88.5247C17.5794 82.9579 14.5892 75.7929 14.2102 68.2607L14.1677 66.5862V50.6317C14.0939 49.4207 14.3776 48.2147 14.9837 47.1637L15.4086 46.5177L15.8676 45.9652V45.9737Z" fill="#0A7DC1"/>
</g>
<defs>
<clipPath id="clip0">
<rect width="170" height="170" fill="white"/>
</clipPath>
</defs>
</svg>
