<svg width="95" height="66" viewBox="0 0 95 66" fill="none" xmlns="http://www.w3.org/2000/svg">
<path fill-rule="evenodd" clip-rule="evenodd" d="M47.3283 0C21.1794 0 0 14.9775 0 33.4692C0 48.2793 13.5477 60.7885 32.3607 65.2231C34.7271 65.516 35.6145 64.5119 35.6145 63.6333C35.6145 62.8384 35.5554 60.2027 35.5554 57.3997C23.6641 58.9476 20.5878 55.3497 19.6412 53.4671C19.1088 52.5048 16.8015 49.5344 14.7901 48.7395C13.1336 48.112 10.7672 46.564 14.7309 46.5222C18.458 46.4804 21.1202 48.9487 22.0077 49.9528C26.2672 55.015 33.0706 53.5926 35.792 52.714C36.2061 50.5385 37.4485 49.0742 38.8092 48.2375C28.2786 47.4008 17.2748 44.514 17.2748 31.7121C17.2748 28.0723 19.1088 25.0601 22.126 22.7172C21.6527 21.8805 19.9962 18.4499 22.5993 13.8479C22.5993 13.8479 26.563 12.9693 35.6145 17.2785C39.4008 16.5254 43.4237 16.1489 47.4466 16.1489C51.4695 16.1489 55.4924 16.5254 59.2787 17.2785C68.3302 12.9275 72.2939 13.8479 72.2939 13.8479C74.897 18.4499 73.2405 21.8805 72.7672 22.7172C75.7844 25.0601 77.6184 28.0305 77.6184 31.7121C77.6184 44.5559 66.5554 47.4008 56.0249 48.2375C57.7405 49.2834 59.2195 51.2916 59.2195 54.4293C59.2195 58.9058 59.1604 62.5038 59.1604 63.6333C59.1604 64.5119 60.0478 65.5578 62.4142 65.2231C71.8095 62.9799 79.9737 58.7097 85.7575 53.0135C91.5414 47.3172 94.6537 40.4818 94.6566 33.4692C94.6566 14.9775 73.4772 0 47.3283 0Z" fill="#FFFEFE"/>
</svg>
