<svg width="1064" height="811" viewBox="0 0 1064 811" fill="none" xmlns="http://www.w3.org/2000/svg">
<path d="M1026 0H38C16.9812 0 0 16.4734 0 36.8636V774.136C0 794.527 16.9812 811 38 811H1026C1047.02 811 1064 794.527 1064 774.136V36.8636C1064 16.4734 1047.02 0 1026 0ZM930.05 125.452L555.394 408.265C546.131 415.292 533.187 415.292 523.925 408.265L149.15 125.452C147.737 124.394 146.701 122.934 146.187 121.276C145.672 119.618 145.705 117.846 146.281 116.208C146.858 114.569 147.948 113.147 149.399 112.139C150.851 111.132 152.59 110.591 154.375 110.591H924.825C926.61 110.591 928.349 111.132 929.801 112.139C931.252 113.147 932.342 114.569 932.919 116.208C933.495 117.846 933.528 119.618 933.013 121.276C932.499 122.934 931.463 124.394 930.05 125.452Z" fill="white" fill-opacity="0.24"/>
</svg>
