<svg width="102" height="68" viewBox="0 0 102 68" fill="none" xmlns="http://www.w3.org/2000/svg">
<path fill-rule="evenodd" clip-rule="evenodd" d="M0.333497 5.6811C0.333497 4.17438 1.22838 2.72937 2.82127 1.66396C4.41416 0.598549 6.57459 7.57369e-06 8.82728 7.57369e-06H93.4971C94.6135 -0.00121195 95.7192 0.144857 96.7511 0.42985C97.7829 0.714844 98.7206 1.13316 99.5104 1.66086C100.3 2.18856 100.927 2.81528 101.354 3.50513C101.781 4.19498 102.001 4.93441 102 5.6811V62.3127C102.001 63.0596 101.782 63.7992 101.356 64.4894C100.929 65.1796 100.303 65.8067 99.514 66.335C98.7247 66.8632 97.7874 67.2821 96.7557 67.5678C95.7241 67.8536 94.6183 68.0004 93.5017 68H8.82728C7.71147 68 6.6066 67.853 5.57578 67.5673C4.54497 67.2816 3.60842 66.8628 2.81963 66.335C2.03085 65.8071 1.4053 65.1804 0.978721 64.4908C0.552141 63.8012 0.33289 63.0621 0.333497 62.3158V5.6811ZM40.575 25.9265H54.3416V30.5506C56.3287 27.8924 61.412 25.5 69.0509 25.5C83.6955 25.5 87.166 30.7947 87.166 40.5095V58.5047H72.3458V42.7225C72.3458 37.1898 70.3587 34.068 65.3123 34.068C58.3112 34.068 55.3998 37.434 55.3998 42.7225V58.5047H40.575V25.9265ZM15.1583 58.0813H29.9832V25.5H15.1583V58.0782V58.0813ZM32.1043 14.8735C32.1323 15.7224 31.9064 16.5666 31.44 17.3564C30.9735 18.1462 30.2759 18.8658 29.3881 19.4728C28.5003 20.0799 27.4401 20.5622 26.2698 20.8915C25.0995 21.2208 23.8427 21.3904 22.5731 21.3904C21.3034 21.3904 20.0466 21.2208 18.8763 20.8915C17.706 20.5622 16.6459 20.0799 15.758 19.4728C14.8702 18.8658 14.1726 18.1462 13.7062 17.3564C13.2397 16.5666 13.0139 15.7224 13.0418 14.8735C13.0967 13.207 14.125 11.6212 15.9064 10.4556C17.6879 9.28998 20.081 8.6373 22.5731 8.6373C25.0652 8.6373 27.4582 9.28998 29.2397 10.4556C31.0212 11.6212 32.0495 13.207 32.1043 14.8735Z" fill="white"/>
</svg>
