<svg width="170" height="170" viewBox="0 0 170 170" fill="none" xmlns="http://www.w3.org/2000/svg">
<path d="M42.5 15.9375C42.5 14.5285 41.9403 13.1773 40.944 12.181C39.9477 11.1847 38.5965 10.625 37.1875 10.625C35.7785 10.625 34.4273 11.1847 33.431 12.181C32.4347 13.1773 31.875 14.5285 31.875 15.9375V47.8125C31.8738 53.936 33.9882 59.8718 37.8606 64.6154C41.7329 69.359 47.1253 72.6191 53.125 73.8437V154.062C53.125 155.471 53.6847 156.823 54.681 157.819C55.6773 158.815 57.0285 159.375 58.4375 159.375C59.8465 159.375 61.1977 158.815 62.194 157.819C63.1903 156.823 63.75 155.471 63.75 154.062V73.8437C69.7497 72.6191 75.1421 69.359 79.0144 64.6154C82.8868 59.8718 85.0012 53.936 85 47.8125V15.9375C85 14.5285 84.4403 13.1773 83.444 12.181C82.4477 11.1847 81.0965 10.625 79.6875 10.625C78.2785 10.625 76.9273 11.1847 75.931 12.181C74.9347 13.1773 74.375 14.5285 74.375 15.9375V47.8125C74.3767 51.1097 73.3558 54.3263 71.4528 57.019C69.5499 59.7116 66.8586 61.7478 63.75 62.8469V15.9375C63.75 14.5285 63.1903 13.1773 62.194 12.181C61.1977 11.1847 59.8465 10.625 58.4375 10.625C57.0285 10.625 55.6773 11.1847 54.681 12.181C53.6847 13.1773 53.125 14.5285 53.125 15.9375V62.8469C50.0164 61.7478 47.3251 59.7116 45.4222 57.019C43.5192 54.3263 42.4983 51.1097 42.5 47.8125V15.9375ZM116.875 154.062V85H100.938C99.5285 85 98.1773 84.4403 97.181 83.444C96.1847 82.4477 95.625 81.0965 95.625 79.6875V37.1875C95.625 30.1431 99.0887 23.5556 103.817 18.8169C108.556 14.0888 115.143 10.625 122.188 10.625C123.596 10.625 124.948 11.1847 125.944 12.181C126.94 13.1773 127.5 14.5285 127.5 15.9375V154.062C127.5 155.471 126.94 156.823 125.944 157.819C124.948 158.815 123.596 159.375 122.188 159.375C120.779 159.375 119.427 158.815 118.431 157.819C117.435 156.823 116.875 155.471 116.875 154.062Z" fill="#0A7DC1"/>
</svg>
