<svg width="170" height="170" viewBox="0 0 170 170" fill="none" xmlns="http://www.w3.org/2000/svg">
<path d="M17.5799 170C12.9174 170 8.4459 168.925 5.14903 167.012C1.85216 165.1 0 162.505 0 159.8L0 40.0633C0 34.4321 7.87433 29.8633 17.5799 29.8633H38.4072C39.0664 29.8633 39.7013 29.9554 40.2506 30.1183L40.2262 30.1112V1.19C40.2262 0.53125 41.1418 0 42.2772 0H115.771C116.906 0 117.822 0.53125 117.822 1.19V29.9413C118.141 29.8951 118.469 29.8713 118.799 29.8704H137.294C147 29.8704 154.874 34.4392 154.874 40.0704V68.6233C155.425 68.4673 156.031 68.3873 156.644 68.3896H165.886C168.157 68.3896 170 69.4592 170 70.7767V132.912C170 133.545 169.567 134.152 168.795 134.6C168.023 135.047 166.977 135.299 165.886 135.299H156.644C156.022 135.3 155.408 135.218 154.85 135.058L154.874 135.065V159.8C154.874 162.505 153.022 165.1 149.725 167.012C146.428 168.925 141.957 170 137.294 170H17.5799ZM106.993 147.114V155.146C106.996 155.463 107.215 155.767 107.601 155.991C107.987 156.215 108.51 156.341 109.056 156.343H125.342C125.888 156.341 126.411 156.215 126.798 155.991C127.184 155.767 127.402 155.463 127.405 155.146V147.114C127.402 146.797 127.183 146.495 126.797 146.272C126.41 146.049 125.887 145.924 125.342 145.924H109.032C108.488 145.926 107.967 146.051 107.581 146.274C107.195 146.496 106.975 146.798 106.969 147.114H106.993ZM68.4639 147.114V155.146C68.4671 155.463 68.6855 155.767 69.0717 155.991C69.458 156.215 69.9809 156.341 70.5271 156.343H86.8007C87.3469 156.341 87.8698 156.215 88.2561 155.991C88.6423 155.767 88.8607 155.463 88.8639 155.146V147.114C88.8607 146.797 88.6419 146.495 88.2553 146.272C87.8687 146.049 87.3458 145.924 86.8007 145.924H70.5149C69.9708 145.926 69.4497 146.051 69.0638 146.274C68.6779 146.496 68.4581 146.798 68.4517 147.114H68.4639ZM29.9346 147.114V155.153C29.9346 155.812 30.8503 156.343 31.9856 156.343H48.2715C48.8177 156.341 49.3406 156.215 49.7268 155.991C50.113 155.767 50.3314 155.463 50.3347 155.146V147.114C50.3314 146.797 50.1126 146.495 49.7261 146.272C49.3395 146.049 48.8165 145.924 48.2715 145.924H31.9856C31.4417 145.924 30.92 146.049 30.5354 146.272C30.1507 146.495 29.9346 146.798 29.9346 147.114ZM106.981 128.902V136.935C106.984 137.252 107.203 137.555 107.589 137.779C107.975 138.004 108.498 138.13 109.044 138.132H125.33C125.876 138.13 126.399 138.004 126.785 137.779C127.172 137.555 127.39 137.252 127.393 136.935V128.895C127.393 128.58 127.177 128.277 126.792 128.054C126.408 127.831 125.886 127.705 125.342 127.705H109.02C108.476 127.705 107.954 127.831 107.569 128.054C107.185 128.277 106.969 128.58 106.969 128.895V128.902H106.981ZM68.4517 128.902V136.935C68.4549 137.252 68.6733 137.555 69.0595 137.779C69.4458 138.004 69.9687 138.13 70.5149 138.132H86.8007C87.3469 138.13 87.8698 138.004 88.2561 137.779C88.6423 137.555 88.8607 137.252 88.8639 136.935V128.895C88.8639 128.58 88.6478 128.277 88.2632 128.054C87.8786 127.831 87.3569 127.705 86.8129 127.705H70.5027C69.9587 127.705 69.4371 127.831 69.0524 128.054C68.6678 128.277 68.4517 128.58 68.4517 128.895V128.902ZM29.9224 128.902V136.942C29.9224 137.601 30.8381 138.132 31.9734 138.132H48.2592C48.8055 138.13 49.3284 138.004 49.7146 137.779C50.1008 137.555 50.3192 137.252 50.3224 136.935V128.895C50.3224 128.58 50.1064 128.277 49.7217 128.054C49.3371 127.831 48.8154 127.705 48.2715 127.705H31.9734C31.4295 127.705 30.9078 127.831 30.5232 128.054C30.1385 128.277 29.9224 128.58 29.9224 128.895V128.902ZM106.969 110.684V118.724C106.969 119.382 107.884 119.914 109.02 119.914H125.33C125.874 119.914 126.396 119.788 126.78 119.565C127.165 119.342 127.381 119.039 127.381 118.724V110.684C127.378 110.368 127.159 110.065 126.772 109.842C126.386 109.619 125.863 109.494 125.318 109.494H109.032C108.488 109.496 107.967 109.622 107.581 109.844C107.195 110.067 106.975 110.368 106.969 110.684ZM68.4395 110.684V118.724C68.4395 119.382 69.3551 119.914 70.4905 119.914H86.8007C87.3447 119.914 87.8664 119.788 88.251 119.565C88.6356 119.342 88.8517 119.039 88.8517 118.724V110.684C88.8485 110.368 88.6297 110.065 88.2431 109.842C87.8565 109.619 87.3336 109.494 86.7885 109.494H70.5027C69.9586 109.496 69.4375 109.622 69.0516 109.844C68.6657 110.067 68.4459 110.368 68.4395 110.684ZM29.9102 110.684V118.724C29.9102 119.382 30.8259 119.914 31.9612 119.914H48.2715C48.8154 119.914 49.3371 119.788 49.7217 119.565C50.1064 119.342 50.3224 119.039 50.3224 118.724V110.684C50.3192 110.368 50.1004 110.065 49.7138 109.842C49.3273 109.619 48.8043 109.494 48.2592 109.494H31.9734C31.4295 109.494 30.9078 109.62 30.5232 109.843C30.1385 110.066 29.9224 110.369 29.9224 110.684H29.9102ZM27.3465 63.1338V97.9271C27.3465 98.5858 28.2621 99.1171 29.3975 99.1171H124.158C124.702 99.1171 125.224 98.9917 125.608 98.7685C125.993 98.5454 126.209 98.2427 126.209 97.9271V63.1338C126.206 62.8168 125.987 62.5134 125.601 62.2893C125.215 62.0652 124.692 61.9385 124.146 61.9367H29.4097C28.8635 61.9385 28.3406 62.0652 27.9543 62.2893C27.5681 62.5134 27.3497 62.8168 27.3465 63.1338ZM21.1935 44.1362V52.5654C21.1935 54.5417 23.9526 56.1425 27.3587 56.1425H129.896C131.531 56.1425 133.099 55.7656 134.255 55.0948C135.411 54.424 136.061 53.5141 136.061 52.5654V44.1362C136.061 43.1875 135.411 42.2777 134.255 41.6069C133.099 40.936 131.531 40.5592 129.896 40.5592H117.81V47.7133H123.767V48.9742H33.5239V47.7133H37.4427C38.433 47.7133 39.4087 47.5748 40.2873 47.3096L40.2506 47.3167V40.9558C39.3794 40.6937 38.4119 40.5577 37.4305 40.5592H27.3343C25.7013 40.561 24.1363 40.9387 22.9827 41.6094C21.8292 42.28 21.1813 43.1888 21.1813 44.1362H21.1935Z" fill="#0A7DC1"/>
</svg>
